<?xml version="1.0" standalone="no"?><!DOCTYPE svg PUBLIC "-//W3C//DTD SVG 1.1//EN" "http://www.w3.org/Graphics/SVG/1.1/DTD/svg11.dtd">
<svg t="1705220316065" 
class="icon" 
viewBox="0 0 1024 1024" 
version="1.1" xmlns="http://www.w3.org/2000/svg" 
p-id="4287" xmlns:xlink="http://www.w3.org/1999/xlink" 
width="200" height="200">
<path d="M512 0a512 512 0 1 0 512 512 512 512 0 0 0-512-512zM265.069714 765.257143h-28.342857L288.146286 280.758857h28.086857l-31.378286 296.228572-1.353143 2.048a500.516571 500.516571 0 0 1 33.974857-42.422858l27.026286-255.670857h28.342857l-24.210285 227.328c-1.645714 1.536 30.610286-20.297143 30.610285-20.297143l21.942857-207.030857h28.489143l-20.553143 192.146286a456.228571 456.228571 0 0 1 99.328-20.297143l6.290286-0.402286a110.189714 110.189714 0 0 0 101.12-95.926857l7.862857-75.52h28.342857l-7.936 75.849143a142.226286 142.226286 0 0 1-138.569142 124.342857l-8.301715 0.329143a238.518857 238.518857 0 0 0-224.256 209.334857z m56.210286 0h-27.904l7.936-75.629714a206.665143 206.665143 0 0 1 201.142857-181.869715l7.862857-0.329143a174.189714 174.189714 0 0 0 161.974857-152.064l7.936-74.569142h28.269715l-3.657143 34.486857c-0.877714 9.325714-2.413714 22.710857-4.352 41.325714a206.592 206.592 0 0 1-201.142857 180.626286l-7.862857 0.329143a174.628571 174.628571 0 0 0-162.194286 153.197714zM757.174857 356.827429l-43.446857 408.429714h-28.086857l31.305143-296.448-32.658286 41.216-26.953143 255.305143h-28.342857l24.210286-227.693715-30.610286 20.662858-21.942857 206.957714h-28.306286l23.04-193.353143a258.450286 258.450286 0 0 1-101.741714 22.345143l-6.290286 0.329143a110.409143 110.409143 0 0 0-101.12 96.182857l-7.936 74.496h-28.342857l8.009143-74.496a142.043429 142.043429 0 0 1 138.569143-125.366857l8.228571-0.365715a238.409143 238.409143 0 0 0 224.256-208.713142l3.218286-29.805715 2.048-21.248 2.669714-24.393143h28.306286z" fill="#5783EB" p-id="4288"></path></svg>